<svg xmlns="http://www.w3.org/2000/svg"  viewBox="0 0 512 512" width="1024px" height="1024px"><path fill="#C56528" d="M294.2,150.7c-5.5-2-11.4,3.2-15.4,6.3c-4.9,3.9-10,7.5-14.3,12.1c-9.2,9.5-16.4,20.9-25.6,30.3c-9.6,9.8-28.4,24.9-43.1,17.6c-8.1-4-11.8-14-11.8-22.7c0-4,2.1-10.3,0.4-14.1c-1.4-3-7.1-2.5-10.1-1.1c7,8.9,4.5,21,4,31.5c-0.3,5.6-1.4,12.1-5.9,16c-4.5,3.7-10.8,2.7-14.7-1.4c-4-4.3-6.2-11.1-8.5-16.4c-2.9-6.7-5.5-13.5-8.1-20.3c-4.8-12.2-9.7-24.6-17.2-35.3c-1.7,1.1-3.5,2-5.3,3.1c-3.8,2.3-5.1,4-3.6,8.3c3.9,10.9,7.8,21.7,12.7,32.1c4.8,10.2,9.7,20.4,14.6,30.6c4.8,9.9,9,19.8,11,30.7c0.2,1,0.1,1.8-0.1,2.5c1.1,3.1,0.2,7.5-0.2,10c-0.5,3.1-1,6.2-1.6,9.2c0.3,0.5,0.7,1.1,1,1.6c2.1,3.5,0,7-2.9,8.2c0,0.2-0.1,0.5-0.1,0.7c-4,19.5-4.8,38.8-3.5,58.7c0.8,12.8,2.2,25.6,3.5,38.4c1.2,12.6,2,25.1,4.4,37.6c2.2,11.3,6,22.3,7.5,33.7c1.1,8.6,1.5,18.2,6.3,25.6c7.5,0.9,14.3,4,21.5,6.5c8.7,3,18.5,3.3,27.6,2.8c15.9-0.8,32.2-6.1,44.6-16.5c-0.2-22.1-8.1-43.1-16.2-63.4c-4-10.1-7.8-20.3-11.9-30.4c-3.9-9.6-8.1-19.2-11.2-29.1c-6.1-19.3-8.7-41.1,1.7-59.5c5.1-9,12.2-16.3,18.8-24.2c6.8-8.1,11.7-17.4,18.2-25.5c0.5-0.7,1.1-1.2,1.8-1.5c0-0.3,0.1-0.7,0.1-1c-0.9-1.7-0.8-3.8,1.1-5.5c0.2-0.2,0.3-0.3,0.4-0.6c-8.3,3-19,5.4-23.9-2c-8.1-12.4,7.4-29,15.3-37.2c9.4-9.8,18.5-19.9,29-28.7c4.2-3.6,9.2-6.7,13.2-10.6c0.5-0.5,2.6-2.1,2.4-3C299.9,153.5,295.6,151.2,294.2,150.7z"/><path fill="#3AB37C" d="M383.3 196.8c10.5-6.8 22.1-13 31.4-21.5 9.1-8.3 17.4-19.6 17.1-32.6-.3-12.8-6.5-24-16.7-31.7-18.5-13.8-42.7-14.2-64.7-11.1-23.4 3.3-45.9 10.3-69 15-7.8 1.6-15.9 3.5-23.8 4.2-7.1.6-16.7.8-22-5-7.4-8.1-1-18.8 5.7-25 9.6-8.9 20.2-16.7 29.8-25.8 5.3-5.1 10.7-10.4 14.9-16.4 1.8-2.6 4.9-7.2 3.5-10.7-3-7.8-17.3-8.7-24.1-9.7-27.3-3.7-58-3.1-83.6 8.3-12.4 5.5-22.9 14.3-33.2 23-10.8 9.1-21.9 17.5-34.3 24.4-21.1 11.8-47 20.9-60.2 42.5-10.5 17.1-15.9 39.4-9.9 59.1 3.1 10.2 8.7 18.9 17.1 25.6 10.7 8.5 23.3 13.9 35.6 19.7 11.9 5.7 23.2 12.3 32.6 21.7 4.8 4.8 9.1 9.9 13.1 15.3 0-.4.1-.9.1-1.3-.6-1.4-.4-3 .3-4.5-.3-.5-.5-1.1-.6-1.7-2.2-12.1-8.1-23.4-13.6-34.3-5.4-10.7-10.6-21.7-15.3-32.7-2.6-6.2-5.1-12.5-7.3-18.9-1.4-4.2-3.9-9.1-3.1-13.7.8-4.3 3.4-8.3 7.1-10.7 3.3-2.2 7.8-3.7 10.4-6.7 2.5-2.9 6.5-2.1 8.7.6 14.9 18.3 20.9 41.7 30.2 62.9 1.1 2.4 2.2 4.8 3.3 7.2.7 1.6 1.4 4.2 2.8 5.4 0 0 0 0 0 0 .4-.8.7-1.5.9-2.4.3-1.5.7-3.2.7-4.8.1-4.2.9-8.2.8-12.4 0-3.2.4-9-2-11.7-2.1-2.4-1.7-5.4-.3-7.5-1.7-2.3-1.9-5.8.8-8.2 5.7-4.7 15.7-4.6 21.9-1.2 6.9 3.8 7.4 11.4 6.7 18.3-.6 5.2-1.1 13.8 3.2 17.8 3 2.7 7.1 2.1 10.7.8 20.2-7.3 30.5-27.4 44.4-42.2 4.8-5.1 10-9.4 15.4-13.7 4.4-3.5 8.9-7.3 14.1-9.5 9.8-4 25.3.2 27.6 11.9 1.9 9.5-9.8 16-16 20.9-11 8.9-20.4 19.2-30.2 29.3-4.2 4.4-8.7 9-11.9 14.3-1.2 2.1-2.7 4.3-3.2 6.7-.2.9-.5 1.9-.4 2.8 0 .3.1.5.1.7 3.6 2.2 14.2-3 17.8-4.5 2.6-1.1 6.3.6 7 3.4 1.1 4.7 2.4 10.8-.3 15.3 0 0 0 0 0 0 0 .1-.1.2-.1.2 0 .1 0 .2 0 .3-.1.5-.2 1-.2 1.5 0 .2-.1 1.3-.1 1.2 0 .6 0 1.3 0 1.9 0 2.5-1.1 4.3-3.1 5.3-.3.2-.6.5-.9.6-.5.3-1 .5-1.5.7-4.6 6.1-8.2 12.8-12.9 18.8-5.2 6.7-11.4 12.8-16.6 19.7 5.2 4.3 13.1 6.5 19.6 7.5 7.4 1.1 14.9.9 22.3.1 14.4-1.5 28.8-4.5 43.3-3.1 25.4 2.4 51.1 22.9 76.6 9.3 8-4.3 17.5-11.6 15.6-21.9-1.9-10.3-11.6-17.1-20.3-21.6-14.6-7.7-51.3-19.1-37.9-42.3C363.5 209.8 373.7 203 383.3 196.8zM369 45.7c-4.4.1-8.7 1.4-12 4.4-1.6 1.5-3.2 3.7-4.3 6.3-.5 1.2-1 2.5-1.1 3.8.4.1.8.2 1.1.4 4.6-1.3 9.2-2.7 13.6-4.5 3-1.3 6.1-2.6 8.8-4.5.9-.6 1.6-1.2 2.3-2.1C376.1 47.1 371.6 45.6 369 45.7z"/><path fill="#3AB37C" d="M430.4 212.8c-5.6.7-10.9 3.9-14.4 8.2-.7.9-1.5 1.4-2.3 1.7.5.5 1 1.1 1.4 1.9 3.7 7.8 20.2 2.7 22.5-4C439.3 215.9 434.7 212.3 430.4 212.8zM477.4 168.2c-3.7-4.8-11.8-3.2-16.1-.4-4.2 2.7-8 6.7-8.4 11.4.1 0 .1 0 .2.1 5.7 2.3 12.9.4 17.9-2.8C473.3 175 479.2 170.5 477.4 168.2zM475.2 61.6c-14-6.4-31.1-.1-44.3 7.4.1.8 0 1.7-.3 2.7-2.4 6.9 10 10.9 15.5 12.2 8.8 2.1 20.2 3.8 28.8 1.3 3.5-1 7.4-4.4 7.4-9.6C482.2 70.5 480.3 64 475.2 61.6z"/><path d="M378.5,241.8c-4.5-2.4-9.9-5.2-12-10.1c-2-4.7,2.8-9.7,5.7-12.8c8.4-8.7,20-14.7,30.1-21.1c21.1-13.4,41.9-31.4,40.3-58.8c-1.4-24.9-23-42-45.4-48.4c-22.4-6.4-46.9-2.5-69.2,2.2c-20.9,4.4-41.6,9.8-62.5,14c-6.4,1.3-15,3.1-21.2,0.4c-6.1-2.7,11.5-16.1,13.9-18c10.8-8.5,21.6-18.2,30.7-28.5c6.7-7.6,14-17.3,10.9-28c-2.6-8.9-13.2-12.8-21.2-14.8c-12.6-3.3-26.4-3.9-39.3-4c-27.6-0.3-56.2,5-79.2,20.9C149,42.4,139.2,51.8,128.5,60c-11.6,8.8-24.4,15.5-37.2,22.2c-11.4,6-23.4,12-33,20.7c-7.7,6.9-13.7,15.4-18.3,24.7c-9.3,18.7-11.9,41.1-5.8,61.2c7.3,24.2,28.9,36.8,50.5,47c12.2,5.8,24,11.5,34.3,20.5c8.4,7.4,15.1,16.3,21,25.7c-0.8,4.3-1.7,8.7-2.7,13c-4.4,21-3.3,43.3-1.5,64.5c2,24.4,3.4,49.3,8.6,73.2c2.4,10.9,5.4,21.4,6.8,32.5c1.2,9.1,2.7,18.8,8.3,26.4c0.6,0.9,1.4,1.4,2.2,1.8c0.9,0.9,2.2,1.5,3.8,1.6c6.6,0.2,12.9,3.4,19,5.6c7.2,2.6,14.6,3.6,22.2,3.9c14.3,0.6,27.9-1.5,41.3-6.7c5.7-2.2,11-5.2,16-8.7c2.6-1.8,4.9-3.9,7.2-5.9c2.5-2.3,1.4-8.2,1.3-11.2c-0.5-14.9-4.8-29.5-9.7-43.4c-9.6-27.4-22.8-53.6-31.2-81.3c-4.1-13.4-5.7-28-0.7-41.4c0.5-1.5,1.2-2.9,1.8-4.2c9.4,7.1,22.9,9.5,34.2,9.9c13.5,0.4,26.9-2.5,40.3-3.7c6.4-0.6,12.8-0.6,19.1,0.3c7.3,1.1,14.5,3.9,21.4,6.3c13.5,4.6,27.2,8.6,41.6,6.7c18.7-2.5,42.2-19.2,36.9-40.5C420.9,258.3,396.3,251,378.5,241.8z M223.8,294.5c-10.4,18.5-7.8,40.2-1.7,59.5c3.1,9.9,7.3,19.5,11.2,29.1c4.1,10.1,7.9,20.3,11.9,30.4c8.1,20.3,16.1,41.3,16.2,63.4c-12.3,10.4-28.6,15.7-44.6,16.5c-9.1,0.5-18.9,0.2-27.6-2.8c-7.2-2.5-14-5.5-21.5-6.5c-4.8-7.5-5.3-17.1-6.3-25.6c-1.4-11.4-5.3-22.4-7.5-33.7c-2.4-12.4-3.2-25-4.4-37.6c-1.3-12.8-2.7-25.5-3.5-38.4c-1.3-19.8-0.5-39.2,3.5-58.7c0-0.2,0.1-0.5,0.1-0.7c2.9-1.2,5-4.7,2.9-8.2c-0.3-0.5-0.6-1.1-1-1.6c0.6-3.1,1.1-6.1,1.6-9.2c0.4-2.6,1.3-7,0.2-10c0.2-0.7,0.3-1.5,0.1-2.5c-2-10.9-6.2-20.8-11-30.7c-4.9-10.2-9.8-20.3-14.6-30.6c-4.9-10.5-8.8-21.3-12.7-32.1c-1.5-4.3-0.2-6,3.6-8.3c1.8-1.1,3.5-2,5.3-3.1c7.5,10.8,12.5,23.1,17.2,35.3c2.7,6.8,5.2,13.6,8.1,20.3c2.3,5.3,4.4,12.1,8.5,16.4c3.8,4.1,10.2,5.1,14.7,1.4c4.6-3.8,5.7-10.3,5.9-16c0.5-10.5,2.9-22.6-4-31.5c3-1.4,8.8-1.9,10.1,1.1c1.7,3.8-0.4,10.1-0.4,14.1c0,8.6,3.7,18.7,11.8,22.7c14.7,7.3,33.5-7.8,43.1-17.6c9.2-9.5,16.4-20.8,25.6-30.3c4.4-4.6,9.4-8.2,14.3-12.1c4-3.1,9.9-8.3,15.4-6.3c1.4,0.5,5.8,2.7,6,4c0.2,0.9-1.9,2.5-2.4,3c-4,3.9-8.9,7.1-13.2,10.6c-10.4,8.8-19.5,18.9-29,28.7c-7.9,8.2-23.4,24.8-15.3,37.2c4.8,7.4,15.6,5,23.9,2c-0.1,0.2-0.2,0.4-0.4,0.6c-2,1.7-2.1,3.8-1.1,5.5c0,0.3-0.1,0.7-0.1,1c-0.6,0.3-1.2,0.8-1.8,1.5c-6.6,8.2-11.4,17.5-18.2,25.5C236,278.2,228.8,285.5,223.8,294.5z M400.2,305.8c-25.5,13.6-51.1-6.9-76.6-9.3c-14.5-1.4-29,1.6-43.3,3.1c-7.4,0.8-14.9,1.1-22.3-0.1c-6.5-1-14.4-3.3-19.6-7.5c5.1-6.8,11.4-12.9,16.6-19.7c4.7-6,8.3-12.8,12.9-18.8c0.5-0.1,1-0.4,1.5-0.7c0.3-0.2,0.6-0.4,0.9-0.6c2-1,3.1-2.8,3.1-5.3c0-0.6,0-1.3,0-1.9c0,0.1,0.1-1,0.1-1.2c0-0.5,0.1-1,0.2-1.5c0-0.1,0-0.2,0-0.3c0-0.1,0.1-0.1,0.1-0.2c0,0,0,0,0,0c2.6-4.4,1.4-10.5,0.3-15.3c-0.7-2.8-4.5-4.5-7-3.4c-3.5,1.5-14.1,6.7-17.8,4.5c0-0.2-0.1-0.4-0.1-0.7c-0.1-0.9,0.3-1.9,0.4-2.8c0.5-2.4,2-4.6,3.2-6.7c3.2-5.3,7.7-9.9,11.9-14.3c9.8-10.1,19.2-20.5,30.2-29.3c6.1-5,17.9-11.4,16-20.9c-2.3-11.7-17.9-15.9-27.6-11.9c-5.3,2.2-9.7,6-14.1,9.5c-5.5,4.3-10.6,8.6-15.4,13.7c-13.9,14.8-24.2,34.9-44.4,42.2c-3.6,1.3-7.7,2-10.7-0.8c-4.4-4-3.8-12.6-3.2-17.8c0.7-7,0.2-14.6-6.7-18.3c-6.2-3.4-16.2-3.5-21.9,1.2c-2.8,2.3-2.5,5.9-0.8,8.2c-1.5,2.1-1.8,5.1,0.3,7.5c2.3,2.6,1.9,8.5,2,11.7c0.1,4.2-0.8,8.3-0.8,12.4c0,1.6-0.4,3.2-0.7,4.8c-0.2,0.9-0.5,1.6-0.9,2.4c0,0,0,0,0,0c-1.4-1.2-2.1-3.8-2.8-5.4c-1-2.4-2.2-4.8-3.3-7.2c-9.3-21.2-15.3-44.6-30.2-62.9c-2.2-2.7-6.2-3.4-8.7-0.6c-2.7,3.1-7.1,4.5-10.4,6.7c-3.7,2.5-6.3,6.4-7.1,10.7c-0.9,4.6,1.6,9.5,3.1,13.7c2.2,6.4,4.6,12.7,7.3,18.9c4.7,11.1,9.9,22,15.3,32.7c5.5,10.9,11.4,22.2,13.6,34.3c0.1,0.6,0.3,1.2,0.6,1.7c-0.8,1.4-1,3.1-0.3,4.5c0,0.4-0.1,0.9-0.1,1.3c-4-5.4-8.3-10.5-13.1-15.3c-9.5-9.4-20.7-16-32.6-21.7c-12.2-5.9-24.9-11.2-35.6-19.7c-8.4-6.7-14-15.4-17.1-25.6c-6-19.7-0.6-42,9.9-59.1c13.3-21.6,39.1-30.7,60.2-42.5c12.4-6.9,23.4-15.4,34.3-24.4c10.3-8.6,20.8-17.4,33.2-23c25.6-11.4,56.3-12,83.6-8.3c6.8,0.9,21.1,1.9,24.1,9.7c1.3,3.5-1.7,8-3.5,10.7c-4.2,6-9.6,11.4-14.9,16.4c-9.5,9.1-20.1,16.9-29.8,25.8c-6.7,6.2-13.1,16.8-5.7,25c5.3,5.8,14.9,5.5,22,5c8-0.7,16-2.6,23.8-4.2c23.1-4.7,45.6-11.7,69-15c22-3.1,46.2-2.7,64.7,11.1c10.2,7.6,16.5,18.9,16.7,31.7c0.3,13-8,24.2-17.1,32.6c-9.3,8.5-20.8,14.7-31.4,21.5c-9.6,6.2-19.8,13-25.6,23.1c-13.4,23.3,23.3,34.7,37.9,42.3c8.7,4.5,18.4,11.3,20.3,21.6C417.7,294.2,408.2,301.6,400.2,305.8z"/><path d="M382.6 39.3c-11.1-8.1-27.9-4.9-36.1 6.1-5.9 8-9.6 22.7 2.3 25.2 1.3 1 3 1.5 5 1 9-2.3 18.1-5.3 26.1-10.1C388.7 56.2 391.9 46.1 382.6 39.3zM375.2 51.4c-2.7 2-5.7 3.3-8.8 4.5-4.4 1.8-9 3.3-13.6 4.5-.4-.2-.7-.3-1.1-.4.2-1.3.6-2.6 1.1-3.8 1.1-2.6 2.7-4.8 4.3-6.3 3.3-3 7.6-4.3 12-4.4 2.6-.1 7.1 1.5 8.4 3.7C376.8 50.2 376 50.8 375.2 51.4zM433.9 201.9c-9.7-1.1-20.1 4.6-26.1 11.9-2.2 2.7-1.3 5.8.6 7.6-3 .6-5.4 3.3-3.7 6.8 8.1 17 38.7 13.1 43.5-4.9C450.8 213.6 444 203.1 433.9 201.9zM437.6 220.6c-2.3 6.7-18.8 11.8-22.5 4-.4-.8-.8-1.4-1.4-1.9.8-.3 1.6-.8 2.3-1.7 3.5-4.3 8.8-7.5 14.4-8.2C434.7 212.3 439.3 215.9 437.6 220.6zM483 53.6c-8.6-6.4-21.4-6.1-31.4-4.1-11.8 2.3-22.9 7.7-32.9 14.2-4.1 2.7-2.4 7.9 1 9.5-.1 11 11 17.5 21.7 20.7 11.6 3.5 27.8 5.6 39.4.9C497.6 88.1 496.2 63.3 483 53.6zM474.9 85.2c-8.5 2.4-20 .8-28.8-1.3-5.5-1.3-18-5.2-15.5-12.2.3-.9.4-1.8.3-2.7 13.2-7.5 30.3-13.8 44.3-7.4 5.1 2.4 7.1 8.8 7.1 14C482.3 80.9 478.4 84.2 474.9 85.2zM486.5 162.1c-6.5-10.2-21.3-8.8-30.3-3.9-10.3 5.6-17.9 18.5-12.7 30 1.7 3.8 6 4.1 8.7 2.4 8.9 2.1 18.1-.4 25.8-5.4C485.5 180.3 492.1 170.8 486.5 162.1zM471 176.5c-5 3.2-12.2 5.2-17.9 2.8-.1 0-.1 0-.2-.1.4-4.7 4.2-8.7 8.4-11.4 4.3-2.8 12.3-4.4 16.1.4C479.2 170.5 473.3 175 471 176.5z"/></svg>