<svg xmlns="http://www.w3.org/2000/svg"  viewBox="0 0 64 64" width="256px" height="256px"><polygon fill="#54FEBD" points="57,53 7,53 19.81,38.36 21,37 13,37 24.25,23.72 26.55,21 20,21 32,6 44,21 37.45,21 39.75,23.72 51,37 43,37 44.19,38.36"/><path fill="#1D1B4C" d="M57.01953,49c-0.00488,0.00049-0.0127,0-0.01953,0H7c-0.39258,0-0.74805-0.22949-0.91016-0.58691 c-0.16309-0.35693-0.10059-0.77637,0.15723-1.07178L18.7959,33H13c-0.38965,0-0.74316-0.22607-0.90723-0.57959 s-0.10742-0.76953,0.14453-1.06689L24.39453,17H20c-0.38477,0-0.73438-0.22021-0.90137-0.56689 c-0.16602-0.34619-0.12012-0.75781,0.12012-1.05762l12-15c0.38086-0.47461,1.18164-0.47461,1.5625,0l12,15 c0.24023,0.2998,0.28613,0.71143,0.12012,1.05762C44.73438,16.77979,44.38477,17,44,17h-4.39453L51.7627,31.35352 c0.25195,0.29736,0.30859,0.71338,0.14453,1.06689S51.38965,33,51,33h-5.7959l12.44336,14.22119 C57.875,47.4043,58.01953,47.68506,58.01953,48C58.01953,48.55225,57.57227,49,57.01953,49z M9.2041,47h45.5918L42.24805,32.65869 c-0.25879-0.29541-0.32129-0.71436-0.15918-1.07178S42.60742,31,43,31h5.8418L36.68652,16.64551 c-0.25098-0.29736-0.30762-0.71338-0.14355-1.06641S37.06055,15,37.4502,15h4.46875L32,2.60059L22.08105,15h4.46875 c0.38965,0,0.74316,0.22607,0.90723,0.5791s0.10742,0.76904-0.14355,1.06641L15.1582,31H21 c0.39258,0,0.74902,0.22949,0.91113,0.58691s0.09961,0.77637-0.15918,1.07178L9.2041,47z"/><path fill="#1D1B4C" d="M28.31934,13c-0.21875,0-0.43945-0.07178-0.62402-0.21924 c-0.43066-0.34473-0.50098-0.97412-0.15625-1.40527l3.67969-4.6001c0.3457-0.43066,0.97363-0.50098,1.40625-0.15625 c0.43066,0.34473,0.50098,0.97412,0.15625,1.40527l-3.67969,4.6001C28.90332,12.87158,28.61328,13,28.31934,13z"/><path fill="#1D1B4C" d="M38,64H26c-0.55273,0-1-0.44775-1-1V48c0-0.55225,0.44727-1,1-1h12c0.55273,0,1,0.44775,1,1v15 C39,63.55225,38.55273,64,38,64z M27,62h10V49H27V62z"/><path fill="#1D1B4C" d="M34,64c-0.55273,0-1-0.44775-1-1v-7c0-0.55225,0.44727-1,1-1s1,0.44775,1,1v7 C35,63.55225,34.55273,64,34,64z"/><path fill="#1D1B4C" d="M34,53c-0.25977,0-0.52051-0.11035-0.70996-0.29004C33.10938,52.52002,33,52.27002,33,52 s0.10938-0.52002,0.29004-0.70996c0.37012-0.37012,1.04004-0.37012,1.41992,0C34.88965,51.47998,35,51.73975,35,52 c0,0.25977-0.11035,0.52002-0.29004,0.70996C34.51953,52.88965,34.25977,53,34,53z"/><path fill="#1D1B4C" d="M34,45c-0.25977,0-0.52051-0.11035-0.70996-0.29004C33.10938,44.52002,33,44.25977,33,44 c0-0.27002,0.10938-0.52002,0.29004-0.70996c0.37012-0.37012,1.0498-0.37012,1.41992,0C34.88965,43.47998,35,43.73975,35,44 c0,0.25977-0.11035,0.52002-0.29004,0.70996C34.51953,44.88965,34.25977,45,34,45z"/><path fill="#1D1B4C" d="M30,45c-0.27051,0-0.52051-0.11035-0.70996-0.29004C29.10938,44.52002,29,44.25977,29,44 c0-0.26025,0.10938-0.52002,0.29004-0.70996c0.37012-0.37012,1.04004-0.37012,1.41992,0C30.88965,43.47998,31,43.73975,31,44 c0,0.25977-0.11035,0.52002-0.29004,0.70996C30.51953,44.88965,30.25977,45,30,45z"/><path fill="#1D1B4C" d="M26,45c-0.25977,0-0.52051-0.11035-0.70996-0.29004C25.10938,44.52002,25,44.27002,25,44 c0-0.26025,0.10938-0.52002,0.29004-0.70996c0.37012-0.37012,1.04004-0.37012,1.41992,0C26.88965,43.47998,27,43.73975,27,44 c0,0.25977-0.11035,0.52002-0.29004,0.70996C26.51953,44.88965,26.25977,45,26,45z"/><path fill="#1D1B4C" d="M22,45c-0.25977,0-0.52051-0.11035-0.70996-0.29004C21.10938,44.52002,21,44.25977,21,44 c0-0.26025,0.09961-0.52002,0.29004-0.70996c0.37988-0.37012,1.0498-0.37012,1.41992,0C22.88965,43.47998,23,43.73975,23,44 c0,0.25977-0.11035,0.52002-0.29004,0.70996C22.51953,44.88965,22.25977,45,22,45z"/><path fill="#1D1B4C" d="M38,45c-0.25977,0-0.52051-0.11035-0.70996-0.29004C37.10938,44.52002,37,44.25977,37,44 c0-0.27002,0.10938-0.52002,0.29004-0.70996c0.37988-0.37012,1.04004-0.37012,1.41992,0C38.88965,43.47998,39,43.73975,39,44 c0,0.25977-0.10059,0.52002-0.29004,0.70996C38.51953,44.88965,38.25977,45,38,45z"/><path fill="#1D1B4C" d="M42,45c-0.25977,0-0.52051-0.11035-0.70996-0.29004C41.10938,44.52002,41,44.27002,41,44 s0.10938-0.52002,0.29004-0.70996c0.37012-0.37012,1.0498-0.37012,1.41992,0C42.88965,43.47998,43,43.73975,43,44 c0,0.25977-0.11035,0.52002-0.2998,0.70996C42.51953,44.88965,42.25977,45,42,45z"/><path fill="#1D1B4C" d="M46,45c-0.25977,0-0.52051-0.11035-0.70996-0.29004C45.09961,44.52002,45,44.25977,45,44 c0-0.26025,0.09961-0.52002,0.29004-0.70996c0.37012-0.37012,1.0498-0.37012,1.41992,0C46.88965,43.47998,47,43.73975,47,44 c0,0.25977-0.11035,0.52002-0.29004,0.70996C46.51953,44.88965,46.25977,45,46,45z"/><path fill="#1D1B4C" d="M18,45c-0.27051,0-0.52051-0.11035-0.70996-0.29004C17.10938,44.52002,17,44.25977,17,44 c0-0.26025,0.09961-0.52002,0.29004-0.70996c0.37988-0.37012,1.04004-0.37012,1.41992,0C18.88965,43.47998,19,43.73975,19,44 c0,0.25977-0.11035,0.52002-0.29004,0.70996C18.51953,44.88965,18.25977,45,18,45z"/><path fill="#1D1B4C" d="M34,41c-0.25977,0-0.52051-0.11035-0.70996-0.29004C33.10938,40.52002,33,40.27002,33,40 s0.10938-0.52002,0.29004-0.70996c0.37012-0.37012,1.04004-0.37012,1.41992,0C34.88965,39.47998,35,39.73975,35,40 c0,0.25977-0.11035,0.52002-0.29004,0.70996C34.51953,40.88965,34.25977,41,34,41z"/><path fill="#1D1B4C" d="M30,41c-0.25977,0-0.52051-0.11035-0.70996-0.29004C29.10938,40.52002,29,40.25977,29,40 c0-0.26025,0.10938-0.52002,0.29004-0.70996c0.35938-0.36035,1.0498-0.37012,1.41992,0C30.88965,39.47998,31,39.73975,31,40 c0,0.25977-0.11035,0.52002-0.29004,0.70996C30.51953,40.88965,30.25977,41,30,41z"/><path fill="#1D1B4C" d="M26,41c-0.25977,0-0.52051-0.11035-0.70996-0.29004C25.10938,40.52002,25,40.25977,25,40 c0-0.27002,0.10938-0.52002,0.29004-0.70996c0.37012-0.37012,1.04004-0.37012,1.41992,0C26.88965,39.47998,27,39.72998,27,40 c0,0.25977-0.11035,0.52002-0.29004,0.70996C26.51953,40.88965,26.25977,41,26,41z"/><path fill="#1D1B4C" d="M22,41c-0.25977,0-0.52051-0.11035-0.70996-0.29004C21.09961,40.52002,21,40.25977,21,40 c0-0.26025,0.10938-0.52002,0.29004-0.70996c0.37012-0.37012,1.0498-0.37012,1.41992,0C22.88965,39.47998,23,39.73975,23,40 c0,0.25977-0.11035,0.52002-0.29004,0.70996C22.51953,40.88965,22.25977,41,22,41z"/><path fill="#1D1B4C" d="M38,41c-0.25977,0-0.52051-0.11035-0.70996-0.29004C37.10938,40.52002,37,40.27002,37,40 s0.10938-0.52002,0.29004-0.70996c0.37988-0.37012,1.04004-0.37012,1.41992,0C38.88965,39.47998,39,39.73975,39,40 c0,0.25977-0.11035,0.52002-0.29004,0.70996C38.51953,40.88965,38.25977,41,38,41z"/><path fill="#1D1B4C" d="M42,41c-0.25977,0-0.52051-0.11035-0.70996-0.29004C41.10938,40.52002,41,40.27002,41,40 s0.10938-0.52002,0.29004-0.70996c0.37012-0.37012,1.04004-0.37012,1.41992,0C42.88965,39.47998,43,39.73975,43,40 c0,0.25977-0.11035,0.52002-0.2998,0.70996C42.51953,40.88965,42.25977,41,42,41z"/><path fill="#1D1B4C" d="M34,37c-0.25977,0-0.52051-0.11035-0.70996-0.29004C33.10938,36.52002,33,36.25977,33,36 c0-0.26025,0.10938-0.52002,0.29004-0.70996c0.37012-0.37012,1.04004-0.37012,1.41992,0C34.88965,35.47998,35,35.73975,35,36 c0,0.25977-0.11035,0.52002-0.29004,0.70996C34.51953,36.88965,34.25977,37,34,37z"/><path fill="#1D1B4C" d="M30,37c-0.27051,0-0.52051-0.11035-0.70996-0.29004C29.10938,36.52002,29,36.25977,29,36 c0-0.26025,0.10938-0.52002,0.29004-0.70996c0.37012-0.37012,1.04004-0.37012,1.41992,0C30.88965,35.47998,31,35.73975,31,36 c0,0.25977-0.11035,0.52002-0.29004,0.70996C30.51953,36.88965,30.25977,37,30,37z"/><path fill="#1D1B4C" d="M26,37c-0.25977,0-0.52051-0.11035-0.70996-0.29004C25.10938,36.52002,25,36.27002,25,36 c0-0.26025,0.10938-0.52002,0.29004-0.70996c0.37012-0.37012,1.0498-0.37012,1.41992,0C26.88965,35.47998,27,35.73975,27,36 c0,0.27002-0.11035,0.52002-0.29004,0.70996C26.51953,36.88965,26.25977,37,26,37z"/><path fill="#1D1B4C" d="M38,37c-0.25977,0-0.52051-0.11035-0.70996-0.29004C37.10938,36.52002,37,36.27002,37,36 c0-0.26025,0.10938-0.52002,0.29004-0.70996c0.37988-0.37012,1.04004-0.37012,1.41992,0C38.89941,35.47998,39,35.73975,39,36 c0,0.25977-0.11035,0.52002-0.29004,0.70996C38.51953,36.88965,38.25977,37,38,37z"/></svg>